# MagicaVoxel @ Ephtracy

# group
o 

# material
mtllib platforms-5.mtl
usemtl palette

# normals
vn -1 0 0
vn 1 0 0
vn 0 0 1
vn 0 0 -1
vn 0 -1 0
vn 0 1 0

# texcoords
vt 0.376953 0.5
vt 0.384766 0.5
vt 0.392578 0.5

# verts
v -0.3 0 6.1
v -0.3 0 5.4
v -0.3 0 5.2
v -0.3 0 4.2
v -0.3 0.1 6
v -0.3 0.1 5.8
v -0.3 0.1 5.7
v -0.3 0.1 5.5
v -0.3 0.1 5.1
v -0.3 0.1 4.9
v -0.3 0.1 4.8
v -0.3 0.1 4.6
v -0.3 0.1 4.5
v -0.3 0.1 4.2
v -0.3 0.3 4.3
v -0.3 0.3 4.2
v -0.3 0.4 6.1
v -0.3 0.4 6
v -0.3 0.4 5.5
v -0.3 0.4 5.4
v -0.3 0.4 5.2
v -0.3 0.4 5.1
v -0.3 0.4 4.9
v -0.3 0.4 4.8
v -0.3 0.6 6.1
v -0.3 0.6 6
v -0.3 0.6 5.5
v -0.3 0.6 5.4
v -0.3 0.6 5.2
v -0.3 0.6 4.6
v -0.3 0.6 4.5
v -0.3 0.6 4.3
v -0.3 0.7 5.5
v -0.3 0.7 5.4
v -0.3 0.7 5.1
v -0.3 0.7 4.2
v -0.3 0.9 5.7
v -0.3 0.9 5.4
v -0.3 0.9 4.9
v -0.3 0.9 4.8
v -0.3 0.9 4.6
v -0.3 0.9 4.2
v -0.3 1 6.1
v -0.3 1 6
v -0.3 1 5.8
v -0.3 1 5.4
v -0.3 1 5.2
v -0.3 1 5.1
v -0.3 1 4.9
v -0.3 1 4.8
v -0.3 1 4.6
v -0.3 1 4.2
v -0.2 0 6
v -0.2 0 5.8
v -0.2 0 5.7
v -0.2 0 5.4
v -0.2 0 5.1
v -0.2 0 4.6
v -0.2 0 4.5
v -0.2 0 4.3
v -0.2 0.1 6.1
v -0.2 0.1 6
v -0.2 0.1 5.8
v -0.2 0.1 5.7
v -0.2 0.1 5.5
v -0.2 0.1 5.2
v -0.2 0.1 5.1
v -0.2 0.1 4.9
v -0.2 0.1 4.8
v -0.2 0.1 4.6
v -0.2 0.1 4.5
v -0.2 0.1 4.3
v -0.2 0.3 6.1
v -0.2 0.3 6
v -0.2 0.3 5.2
v -0.2 0.3 5.1
v -0.2 0.4 5.5
v -0.2 0.4 5.4
v -0.2 0.4 4.9
v -0.2 0.4 4.8
v -0.2 0.4 4.3
v -0.2 0.4 4.2
v -0.2 0.6 5.2
v -0.2 0.6 4.6
v -0.2 0.6 4.5
v -0.2 0.6 4.3
v -0.2 0.7 6.1
v -0.2 0.7 6
v -0.2 0.7 5.1
v -0.2 0.7 4.6
v -0.2 0.7 4.5
v -0.2 0.7 4.2
v -0.2 0.9 6.1
v -0.2 0.9 6
v -0.2 0.9 5.7
v -0.2 0.9 5.4
v -0.2 0.9 4.5
v -0.2 0.9 4.3
v -0.2 1 5.8
v -0.2 1 5.4
v -0.2 1 5.2
v -0.2 1 5.1
v -0.2 1 4.5
v -0.2 1 4.3
v 0 0 6.1
v 0 0 6
v 0 0 5.8
v 0 0 5.7
v 0 0 5.2
v 0 0 5.1
v 0 0 4.6
v 0 0 4.5
v 0 0 4.3
v 0 0 4.2
v 0 0.1 6.1
v 0 0.1 6
v 0 0.1 5.8
v 0 0.1 5.7
v 0 0.1 5.2
v 0 0.1 5.1
v 0 0.1 4.6
v 0 0.1 4.5
v 0 0.1 4.3
v 0 0.1 4.2
v 0 0.3 6.1
v 0 0.3 6
v 0 0.3 5.2
v 0 0.3 5.1
v 0 0.3 4.3
v 0 0.3 4.2
v 0 0.4 6.1
v 0 0.4 6
v 0 0.4 5.2
v 0 0.4 5.1
v 0 0.4 4.3
v 0 0.4 4.2
v 0 0.6 6.1
v 0 0.6 6
v 0 0.6 5.5
v 0 0.6 5.4
v 0 0.6 4.6
v 0 0.6 4.5
v 0 0.7 6.1
v 0 0.7 6
v 0 0.7 5.5
v 0 0.7 5.4
v 0 0.7 4.6
v 0 0.7 4.5
v 0 0.9 6.1
v 0 0.9 6
v 0 0.9 4.9
v 0 0.9 4.8
v 0 0.9 4.6
v 0 0.9 4.5
v 0 0.9 4.3
v 0 0.9 4.2
v 0 1 6.1
v 0 1 6
v 0 1 4.9
v 0 1 4.8
v 0 1 4.6
v 0 1 4.5
v 0 1 4.3
v 0 1 4.2
v -0.3 0 6.1
v -0.3 0.4 6.1
v -0.3 0.6 6.1
v -0.3 1 6.1
v -0.2 0 6.1
v -0.2 0.1 6.1
v -0.2 0.3 6.1
v -0.2 0.4 6.1
v -0.2 0.6 6.1
v -0.2 0.7 6.1
v -0.2 0.9 6.1
v -0.2 1 6.1
v -0.1 0 6.1
v -0.1 0.1 6.1
v -0.1 0.3 6.1
v -0.1 0.4 6.1
v -0.1 0.6 6.1
v -0.1 0.7 6.1
v -0.1 0.9 6.1
v -0.1 1 6.1
v 0 0 6.1
v 0 0.1 6.1
v 0 0.3 6.1
v 0 0.4 6.1
v 0 0.6 6.1
v 0 0.7 6.1
v 0 0.9 6.1
v 0 1 6.1
v -0.3 0.1 5.8
v -0.3 1 5.8
v -0.2 0 5.8
v -0.2 0.1 5.8
v -0.2 1 5.8
v -0.1 0 5.8
v -0.1 0.1 5.8
v 0 0 5.8
v 0 0.1 5.8
v -0.3 0.1 5.5
v -0.3 0.4 5.5
v -0.3 0.6 5.5
v -0.3 0.7 5.5
v -0.2 0.1 5.5
v -0.2 0.4 5.5
v -0.2 0.6 5.5
v -0.2 0.7 5.5
v -0.1 0.6 5.5
v -0.1 0.7 5.5
v 0 0.6 5.5
v 0 0.7 5.5
v -0.3 0 5.2
v -0.3 0.4 5.2
v -0.3 0.6 5.2
v -0.3 1 5.2
v -0.2 0 5.2
v -0.2 0.1 5.2
v -0.2 0.3 5.2
v -0.2 0.4 5.2
v -0.2 0.6 5.2
v -0.2 1 5.2
v -0.1 0 5.2
v -0.1 0.1 5.2
v -0.1 0.3 5.2
v -0.1 0.4 5.2
v 0 0 5.2
v 0 0.1 5.2
v 0 0.3 5.2
v 0 0.4 5.2
v -0.3 0.1 4.9
v -0.3 0.4 4.9
v -0.3 0.9 4.9
v -0.3 1 4.9
v -0.2 0.1 4.9
v -0.2 0.4 4.9
v -0.2 0.9 4.9
v -0.2 1 4.9
v -0.1 0.9 4.9
v -0.1 1 4.9
v 0 0.9 4.9
v 0 1 4.9
v -0.3 0.1 4.6
v -0.3 0.6 4.6
v -0.3 0.9 4.6
v -0.3 1 4.6
v -0.2 0 4.6
v -0.2 0.1 4.6
v -0.2 0.6 4.6
v -0.2 0.7 4.6
v -0.2 0.9 4.6
v -0.2 1 4.6
v -0.1 0 4.6
v -0.1 0.1 4.6
v -0.1 0.6 4.6
v -0.1 0.7 4.6
v -0.1 0.9 4.6
v -0.1 1 4.6
v 0 0 4.6
v 0 0.1 4.6
v 0 0.6 4.6
v 0 0.7 4.6
v 0 0.9 4.6
v 0 1 4.6
v -0.3 0.3 4.3
v -0.3 0.6 4.3
v -0.2 0 4.3
v -0.2 0.1 4.3
v -0.2 0.3 4.3
v -0.2 0.4 4.3
v -0.2 0.6 4.3
v -0.2 0.9 4.3
v -0.2 1 4.3
v -0.1 0 4.3
v -0.1 0.1 4.3
v -0.1 0.3 4.3
v -0.1 0.4 4.3
v -0.1 0.9 4.3
v -0.1 1 4.3
v 0 0 4.3
v 0 0.1 4.3
v 0 0.3 4.3
v 0 0.4 4.3
v 0 0.9 4.3
v 0 1 4.3
v -0.3 0.1 6
v -0.3 0.4 6
v -0.3 0.6 6
v -0.3 1 6
v -0.2 0 6
v -0.2 0.1 6
v -0.2 0.3 6
v -0.2 0.4 6
v -0.2 0.6 6
v -0.2 0.7 6
v -0.2 0.9 6
v -0.2 1 6
v -0.1 0 6
v -0.1 0.1 6
v -0.1 0.3 6
v -0.1 0.4 6
v -0.1 0.6 6
v -0.1 0.7 6
v -0.1 0.9 6
v -0.1 1 6
v 0 0 6
v 0 0.1 6
v 0 0.3 6
v 0 0.4 6
v 0 0.6 6
v 0 0.7 6
v 0 0.9 6
v 0 1 6
v -0.3 0.1 5.7
v -0.3 0.9 5.7
v -0.2 0 5.7
v -0.2 0.1 5.7
v -0.2 0.9 5.7
v -0.1 0 5.7
v -0.1 0.1 5.7
v 0 0 5.7
v 0 0.1 5.7
v -0.3 0 5.4
v -0.3 0.4 5.4
v -0.3 0.6 5.4
v -0.3 0.7 5.4
v -0.3 0.9 5.4
v -0.3 1 5.4
v -0.2 0 5.4
v -0.2 0.4 5.4
v -0.2 0.6 5.4
v -0.2 0.7 5.4
v -0.2 0.9 5.4
v -0.2 1 5.4
v -0.1 0.6 5.4
v -0.1 0.7 5.4
v 0 0.6 5.4
v 0 0.7 5.4
v -0.3 0.1 5.1
v -0.3 0.4 5.1
v -0.3 0.7 5.1
v -0.3 1 5.1
v -0.2 0 5.1
v -0.2 0.1 5.1
v -0.2 0.3 5.1
v -0.2 0.4 5.1
v -0.2 0.7 5.1
v -0.2 1 5.1
v -0.1 0 5.1
v -0.1 0.1 5.1
v -0.1 0.3 5.1
v -0.1 0.4 5.1
v 0 0 5.1
v 0 0.1 5.1
v 0 0.3 5.1
v 0 0.4 5.1
v -0.3 0.1 4.8
v -0.3 0.4 4.8
v -0.3 0.9 4.8
v -0.3 1 4.8
v -0.2 0.1 4.8
v -0.2 0.4 4.8
v -0.2 0.9 4.8
v -0.2 1 4.8
v -0.1 0.9 4.8
v -0.1 1 4.8
v 0 0.9 4.8
v 0 1 4.8
v -0.3 0.1 4.5
v -0.3 0.6 4.5
v -0.2 0 4.5
v -0.2 0.1 4.5
v -0.2 0.6 4.5
v -0.2 0.7 4.5
v -0.2 0.9 4.5
v -0.2 1 4.5
v -0.1 0 4.5
v -0.1 0.1 4.5
v -0.1 0.6 4.5
v -0.1 0.7 4.5
v -0.1 0.9 4.5
v -0.1 1 4.5
v 0 0 4.5
v 0 0.1 4.5
v 0 0.6 4.5
v 0 0.7 4.5
v 0 0.9 4.5
v 0 1 4.5
v -0.3 0 4.2
v -0.3 0.1 4.2
v -0.3 0.3 4.2
v -0.3 0.7 4.2
v -0.3 0.9 4.2
v -0.3 1 4.2
v -0.2 0 4.2
v -0.2 0.1 4.2
v -0.2 0.3 4.2
v -0.2 0.4 4.2
v -0.2 0.7 4.2
v -0.2 0.9 4.2
v -0.2 1 4.2
v -0.1 0 4.2
v -0.1 0.1 4.2
v -0.1 0.3 4.2
v -0.1 0.4 4.2
v -0.1 0.9 4.2
v -0.1 1 4.2
v 0 0 4.2
v 0 0.1 4.2
v 0 0.3 4.2
v 0 0.4 4.2
v 0 0.9 4.2
v 0 1 4.2
v -0.3 0 6.1
v -0.2 0 6.1
v -0.1 0 6.1
v 0 0 6.1
v -0.2 0 6
v -0.1 0 6
v 0 0 6
v -0.2 0 5.8
v -0.1 0 5.8
v 0 0 5.8
v -0.2 0 5.7
v -0.1 0 5.7
v 0 0 5.7
v -0.3 0 5.4
v -0.2 0 5.4
v -0.3 0 5.2
v -0.2 0 5.2
v -0.1 0 5.2
v 0 0 5.2
v -0.2 0 5.1
v -0.1 0 5.1
v 0 0 5.1
v -0.2 0 4.6
v -0.1 0 4.6
v 0 0 4.6
v -0.2 0 4.5
v -0.1 0 4.5
v 0 0 4.5
v -0.2 0 4.3
v -0.1 0 4.3
v 0 0 4.3
v -0.3 0 4.2
v -0.2 0 4.2
v -0.1 0 4.2
v 0 0 4.2
v -0.2 0.3 6.1
v -0.1 0.3 6.1
v 0 0.3 6.1
v -0.2 0.3 6
v -0.1 0.3 6
v 0 0.3 6
v -0.2 0.3 5.2
v -0.1 0.3 5.2
v 0 0.3 5.2
v -0.2 0.3 5.1
v -0.1 0.3 5.1
v 0 0.3 5.1
v -0.3 0.3 4.3
v -0.2 0.3 4.3
v -0.1 0.3 4.3
v 0 0.3 4.3
v -0.3 0.3 4.2
v -0.2 0.3 4.2
v -0.1 0.3 4.2
v 0 0.3 4.2
v -0.3 0.6 6.1
v -0.2 0.6 6.1
v -0.1 0.6 6.1
v 0 0.6 6.1
v -0.3 0.6 6
v -0.2 0.6 6
v -0.1 0.6 6
v 0 0.6 6
v -0.3 0.6 5.5
v -0.2 0.6 5.5
v -0.1 0.6 5.5
v 0 0.6 5.5
v -0.3 0.6 5.4
v -0.2 0.6 5.4
v -0.1 0.6 5.4
v 0 0.6 5.4
v -0.3 0.6 5.2
v -0.2 0.6 5.2
v -0.3 0.6 4.6
v -0.2 0.6 4.6
v -0.1 0.6 4.6
v 0 0.6 4.6
v -0.3 0.6 4.5
v -0.2 0.6 4.5
v -0.1 0.6 4.5
v 0 0.6 4.5
v -0.3 0.6 4.3
v -0.2 0.6 4.3
v -0.2 0.9 6.1
v -0.1 0.9 6.1
v 0 0.9 6.1
v -0.2 0.9 6
v -0.1 0.9 6
v 0 0.9 6
v -0.3 0.9 5.7
v -0.2 0.9 5.7
v -0.3 0.9 5.4
v -0.2 0.9 5.4
v -0.3 0.9 4.9
v -0.2 0.9 4.9
v -0.1 0.9 4.9
v 0 0.9 4.9
v -0.3 0.9 4.8
v -0.2 0.9 4.8
v -0.1 0.9 4.8
v 0 0.9 4.8
v -0.3 0.9 4.6
v -0.2 0.9 4.6
v -0.1 0.9 4.6
v 0 0.9 4.6
v -0.2 0.9 4.5
v -0.1 0.9 4.5
v 0 0.9 4.5
v -0.2 0.9 4.3
v -0.1 0.9 4.3
v 0 0.9 4.3
v -0.3 0.9 4.2
v -0.2 0.9 4.2
v -0.1 0.9 4.2
v 0 0.9 4.2
v -0.2 0.1 6.1
v -0.1 0.1 6.1
v 0 0.1 6.1
v -0.3 0.1 6
v -0.2 0.1 6
v -0.1 0.1 6
v 0 0.1 6
v -0.3 0.1 5.8
v -0.2 0.1 5.8
v -0.1 0.1 5.8
v 0 0.1 5.8
v -0.3 0.1 5.7
v -0.2 0.1 5.7
v -0.1 0.1 5.7
v 0 0.1 5.7
v -0.3 0.1 5.5
v -0.2 0.1 5.5
v -0.2 0.1 5.2
v -0.1 0.1 5.2
v 0 0.1 5.2
v -0.3 0.1 5.1
v -0.2 0.1 5.1
v -0.1 0.1 5.1
v 0 0.1 5.1
v -0.3 0.1 4.9
v -0.2 0.1 4.9
v -0.3 0.1 4.8
v -0.2 0.1 4.8
v -0.3 0.1 4.6
v -0.2 0.1 4.6
v -0.1 0.1 4.6
v 0 0.1 4.6
v -0.3 0.1 4.5
v -0.2 0.1 4.5
v -0.1 0.1 4.5
v 0 0.1 4.5
v -0.2 0.1 4.3
v -0.1 0.1 4.3
v 0 0.1 4.3
v -0.3 0.1 4.2
v -0.2 0.1 4.2
v -0.1 0.1 4.2
v 0 0.1 4.2
v -0.3 0.4 6.1
v -0.2 0.4 6.1
v -0.1 0.4 6.1
v 0 0.4 6.1
v -0.3 0.4 6
v -0.2 0.4 6
v -0.1 0.4 6
v 0 0.4 6
v -0.3 0.4 5.5
v -0.2 0.4 5.5
v -0.3 0.4 5.4
v -0.2 0.4 5.4
v -0.3 0.4 5.2
v -0.2 0.4 5.2
v -0.1 0.4 5.2
v 0 0.4 5.2
v -0.3 0.4 5.1
v -0.2 0.4 5.1
v -0.1 0.4 5.1
v 0 0.4 5.1
v -0.3 0.4 4.9
v -0.2 0.4 4.9
v -0.3 0.4 4.8
v -0.2 0.4 4.8
v -0.2 0.4 4.3
v -0.1 0.4 4.3
v 0 0.4 4.3
v -0.2 0.4 4.2
v -0.1 0.4 4.2
v 0 0.4 4.2
v -0.2 0.7 6.1
v -0.1 0.7 6.1
v 0 0.7 6.1
v -0.2 0.7 6
v -0.1 0.7 6
v 0 0.7 6
v -0.3 0.7 5.5
v -0.2 0.7 5.5
v -0.1 0.7 5.5
v 0 0.7 5.5
v -0.3 0.7 5.4
v -0.2 0.7 5.4
v -0.1 0.7 5.4
v 0 0.7 5.4
v -0.3 0.7 5.1
v -0.2 0.7 5.1
v -0.2 0.7 4.6
v -0.1 0.7 4.6
v 0 0.7 4.6
v -0.2 0.7 4.5
v -0.1 0.7 4.5
v 0 0.7 4.5
v -0.3 0.7 4.2
v -0.2 0.7 4.2
v -0.3 1 6.1
v -0.2 1 6.1
v -0.1 1 6.1
v 0 1 6.1
v -0.3 1 6
v -0.2 1 6
v -0.1 1 6
v 0 1 6
v -0.3 1 5.8
v -0.2 1 5.8
v -0.3 1 5.4
v -0.2 1 5.4
v -0.3 1 5.2
v -0.2 1 5.2
v -0.3 1 5.1
v -0.2 1 5.1
v -0.3 1 4.9
v -0.2 1 4.9
v -0.1 1 4.9
v 0 1 4.9
v -0.3 1 4.8
v -0.2 1 4.8
v -0.1 1 4.8
v 0 1 4.8
v -0.3 1 4.6
v -0.2 1 4.6
v -0.1 1 4.6
v 0 1 4.6
v -0.2 1 4.5
v -0.1 1 4.5
v 0 1 4.5
v -0.2 1 4.3
v -0.1 1 4.3
v 0 1 4.3
v -0.3 1 4.2
v -0.2 1 4.2
v -0.1 1 4.2
v 0 1 4.2

# faces
f 5/3/1 2/3/1 1/3/1
f 6/3/1 2/3/1 5/3/1
f 7/3/1 2/3/1 6/3/1
f 8/3/1 2/3/1 7/3/1
f 9/3/1 4/3/1 3/3/1
f 10/3/1 4/3/1 9/3/1
f 11/3/1 4/3/1 10/3/1
f 12/3/1 4/3/1 11/3/1
f 13/3/1 4/3/1 12/3/1
f 14/3/1 4/3/1 13/3/1
f 17/3/1 5/3/1 1/3/1
f 18/3/1 5/3/1 17/3/1
f 19/3/1 2/3/1 8/3/1
f 20/3/1 2/3/1 19/3/1
f 21/3/1 9/3/1 3/3/1
f 22/3/1 9/3/1 21/3/1
f 23/3/1 11/3/1 10/3/1
f 24/3/1 11/3/1 23/3/1
f 30/3/1 13/3/1 12/3/1
f 31/3/1 13/3/1 30/3/1
f 32/3/1 16/3/1 15/3/1
f 33/3/1 28/3/1 27/3/1
f 34/3/1 28/3/1 33/3/1
f 35/3/1 32/3/1 31/3/1
f 35/3/1 31/3/1 30/3/1
f 35/3/1 30/3/1 29/3/1
f 36/3/1 16/3/1 32/3/1
f 36/3/1 32/3/1 35/3/1
f 37/3/1 7/3/1 6/3/1
f 43/3/1 26/3/1 25/3/1
f 44/3/1 26/3/1 43/3/1
f 45/3/1 37/3/1 6/3/1
f 45/3/1 38/3/1 37/3/1
f 46/3/1 38/3/1 45/3/1
f 47/3/1 35/3/1 29/3/1
f 48/3/1 35/3/1 47/3/1
f 49/3/1 40/3/1 39/3/1
f 50/3/1 40/3/1 49/3/1
f 51/3/1 42/3/1 41/3/1
f 52/3/1 42/3/1 51/3/1
f 53/3/2 54/3/2 62/3/2
f 62/3/2 54/3/2 63/3/2
f 55/3/2 56/3/2 64/3/2
f 64/3/2 56/3/2 65/3/2
f 57/3/2 58/3/2 67/3/2
f 67/3/2 58/3/2 68/3/2
f 68/3/2 58/3/2 69/3/2
f 69/3/2 58/3/2 70/3/2
f 59/3/2 60/3/2 71/3/2
f 71/3/2 60/3/2 72/3/2
f 61/3/2 62/3/2 73/3/2
f 73/3/2 62/3/2 74/3/2
f 66/3/2 67/3/2 75/3/2
f 75/3/2 67/3/2 76/3/2
f 65/3/2 56/3/2 77/3/2
f 77/3/2 56/3/2 78/3/2
f 68/3/2 69/3/2 79/3/2
f 79/3/2 69/3/2 80/3/2
f 70/3/2 71/3/2 84/3/2
f 84/3/2 71/3/2 85/3/2
f 81/3/2 82/3/2 86/3/2
f 83/3/2 84/3/2 89/3/2
f 89/3/2 84/3/2 90/3/2
f 85/3/2 86/3/2 91/3/2
f 86/3/2 82/3/2 92/3/2
f 91/3/2 86/3/2 92/3/2
f 87/3/2 88/3/2 93/3/2
f 93/3/2 88/3/2 94/3/2
f 63/3/2 64/3/2 95/3/2
f 63/3/2 95/3/2 99/3/2
f 95/3/2 96/3/2 99/3/2
f 99/3/2 96/3/2 100/3/2
f 83/3/2 89/3/2 101/3/2
f 101/3/2 89/3/2 102/3/2
f 97/3/2 98/3/2 103/3/2
f 103/3/2 98/3/2 104/3/2
f 105/1/2 106/1/2 115/1/2
f 115/1/2 106/1/2 116/1/2
f 107/1/2 108/1/2 117/1/2
f 117/1/2 108/1/2 118/1/2
f 109/1/2 110/1/2 119/1/2
f 119/1/2 110/1/2 120/1/2
f 111/1/2 112/1/2 121/1/2
f 121/1/2 112/1/2 122/1/2
f 113/1/2 114/1/2 123/1/2
f 123/1/2 114/1/2 124/1/2
f 125/1/2 126/1/2 131/1/2
f 131/1/2 126/1/2 132/1/2
f 127/1/2 128/1/2 133/1/2
f 133/1/2 128/1/2 134/1/2
f 129/1/2 130/1/2 135/1/2
f 135/1/2 130/1/2 136/1/2
f 137/1/2 138/1/2 143/1/2
f 143/1/2 138/1/2 144/1/2
f 139/1/2 140/1/2 145/1/2
f 145/1/2 140/1/2 146/1/2
f 141/1/2 142/1/2 147/1/2
f 147/1/2 142/1/2 148/1/2
f 149/1/2 150/1/2 157/1/2
f 157/1/2 150/1/2 158/1/2
f 151/1/2 152/1/2 159/1/2
f 159/1/2 152/1/2 160/1/2
f 153/1/2 154/1/2 161/1/2
f 161/1/2 154/1/2 162/1/2
f 155/1/2 156/1/2 163/1/2
f 163/1/2 156/1/2 164/1/2
f 169/3/3 166/3/3 165/3/3
f 170/3/3 166/3/3 169/3/3
f 171/3/3 166/3/3 170/3/3
f 172/3/3 166/3/3 171/3/3
f 173/3/3 168/3/3 167/3/3
f 174/3/3 168/3/3 173/3/3
f 175/3/3 168/3/3 174/3/3
f 176/3/3 168/3/3 175/3/3
f 177/2/3 170/2/3 169/2/3
f 178/2/3 170/2/3 177/2/3
f 179/2/3 172/2/3 171/2/3
f 180/2/3 172/2/3 179/2/3
f 181/2/3 174/2/3 173/2/3
f 182/2/3 174/2/3 181/2/3
f 183/2/3 176/2/3 175/2/3
f 184/2/3 176/2/3 183/2/3
f 185/1/3 178/1/3 177/1/3
f 186/1/3 178/1/3 185/1/3
f 187/1/3 180/1/3 179/1/3
f 188/1/3 180/1/3 187/1/3
f 189/1/3 182/1/3 181/1/3
f 190/1/3 182/1/3 189/1/3
f 191/1/3 184/1/3 183/1/3
f 192/1/3 184/1/3 191/1/3
f 196/3/3 194/3/3 193/3/3
f 197/3/3 194/3/3 196/3/3
f 198/2/3 196/2/3 195/2/3
f 199/2/3 196/2/3 198/2/3
f 200/1/3 199/1/3 198/1/3
f 201/1/3 199/1/3 200/1/3
f 206/3/3 203/3/3 202/3/3
f 207/3/3 203/3/3 206/3/3
f 208/3/3 205/3/3 204/3/3
f 209/3/3 205/3/3 208/3/3
f 210/2/3 209/2/3 208/2/3
f 211/2/3 209/2/3 210/2/3
f 212/1/3 211/1/3 210/1/3
f 213/1/3 211/1/3 212/1/3
f 218/3/3 215/3/3 214/3/3
f 219/3/3 215/3/3 218/3/3
f 220/3/3 215/3/3 219/3/3
f 221/3/3 215/3/3 220/3/3
f 222/3/3 217/3/3 216/3/3
f 223/3/3 217/3/3 222/3/3
f 224/2/3 219/2/3 218/2/3
f 225/2/3 219/2/3 224/2/3
f 226/2/3 221/2/3 220/2/3
f 227/2/3 221/2/3 226/2/3
f 228/1/3 225/1/3 224/1/3
f 229/1/3 225/1/3 228/1/3
f 230/1/3 227/1/3 226/1/3
f 231/1/3 227/1/3 230/1/3
f 236/3/3 233/3/3 232/3/3
f 237/3/3 233/3/3 236/3/3
f 238/3/3 235/3/3 234/3/3
f 239/3/3 235/3/3 238/3/3
f 240/2/3 239/2/3 238/2/3
f 241/2/3 239/2/3 240/2/3
f 242/1/3 241/1/3 240/1/3
f 243/1/3 241/1/3 242/1/3
f 249/3/3 245/3/3 244/3/3
f 250/3/3 245/3/3 249/3/3
f 252/3/3 247/3/3 246/3/3
f 253/3/3 247/3/3 252/3/3
f 254/2/3 249/2/3 248/2/3
f 255/2/3 249/2/3 254/2/3
f 256/2/3 251/2/3 250/2/3
f 257/2/3 251/2/3 256/2/3
f 258/2/3 253/2/3 252/2/3
f 259/2/3 253/2/3 258/2/3
f 260/1/3 255/1/3 254/1/3
f 261/1/3 255/1/3 260/1/3
f 262/1/3 257/1/3 256/1/3
f 263/1/3 257/1/3 262/1/3
f 264/1/3 259/1/3 258/1/3
f 265/1/3 259/1/3 264/1/3
f 270/3/3 267/3/3 266/3/3
f 271/3/3 267/3/3 270/3/3
f 272/3/3 267/3/3 271/3/3
f 275/2/3 269/2/3 268/2/3
f 276/2/3 269/2/3 275/2/3
f 277/2/3 271/2/3 270/2/3
f 278/2/3 271/2/3 277/2/3
f 279/2/3 274/2/3 273/2/3
f 280/2/3 274/2/3 279/2/3
f 281/1/3 276/1/3 275/1/3
f 282/1/3 276/1/3 281/1/3
f 283/1/3 278/1/3 277/1/3
f 284/1/3 278/1/3 283/1/3
f 285/1/3 280/1/3 279/1/3
f 286/1/3 280/1/3 285/1/3
f 287/3/4 288/3/4 292/3/4
f 292/3/4 288/3/4 293/3/4
f 293/3/4 288/3/4 294/3/4
f 289/3/4 290/3/4 295/3/4
f 295/3/4 290/3/4 296/3/4
f 296/3/4 290/3/4 297/3/4
f 297/3/4 290/3/4 298/3/4
f 291/2/4 292/2/4 299/2/4
f 299/2/4 292/2/4 300/2/4
f 293/2/4 294/2/4 301/2/4
f 301/2/4 294/2/4 302/2/4
f 295/2/4 296/2/4 303/2/4
f 303/2/4 296/2/4 304/2/4
f 297/2/4 298/2/4 305/2/4
f 305/2/4 298/2/4 306/2/4
f 299/1/4 300/1/4 307/1/4
f 307/1/4 300/1/4 308/1/4
f 301/1/4 302/1/4 309/1/4
f 309/1/4 302/1/4 310/1/4
f 303/1/4 304/1/4 311/1/4
f 311/1/4 304/1/4 312/1/4
f 305/1/4 306/1/4 313/1/4
f 313/1/4 306/1/4 314/1/4
f 315/3/4 316/3/4 318/3/4
f 318/3/4 316/3/4 319/3/4
f 317/2/4 318/2/4 320/2/4
f 320/2/4 318/2/4 321/2/4
f 320/1/4 321/1/4 322/1/4
f 322/1/4 321/1/4 323/1/4
f 324/3/4 325/3/4 330/3/4
f 330/3/4 325/3/4 331/3/4
f 326/3/4 327/3/4 332/3/4
f 332/3/4 327/3/4 333/3/4
f 328/3/4 329/3/4 334/3/4
f 334/3/4 329/3/4 335/3/4
f 332/2/4 333/2/4 336/2/4
f 336/2/4 333/2/4 337/2/4
f 336/1/4 337/1/4 338/1/4
f 338/1/4 337/1/4 339/1/4
f 340/3/4 341/3/4 345/3/4
f 345/3/4 341/3/4 346/3/4
f 346/3/4 341/3/4 347/3/4
f 342/3/4 343/3/4 348/3/4
f 348/3/4 343/3/4 349/3/4
f 344/2/4 345/2/4 350/2/4
f 350/2/4 345/2/4 351/2/4
f 346/2/4 347/2/4 352/2/4
f 352/2/4 347/2/4 353/2/4
f 350/1/4 351/1/4 354/1/4
f 354/1/4 351/1/4 355/1/4
f 352/1/4 353/1/4 356/1/4
f 356/1/4 353/1/4 357/1/4
f 358/3/4 359/3/4 362/3/4
f 362/3/4 359/3/4 363/3/4
f 360/3/4 361/3/4 364/3/4
f 364/3/4 361/3/4 365/3/4
f 364/2/4 365/2/4 366/2/4
f 366/2/4 365/2/4 367/2/4
f 366/1/4 367/1/4 368/1/4
f 368/1/4 367/1/4 369/1/4
f 370/3/4 371/3/4 373/3/4
f 373/3/4 371/3/4 374/3/4
f 372/2/4 373/2/4 378/2/4
f 378/2/4 373/2/4 379/2/4
f 374/2/4 375/2/4 380/2/4
f 380/2/4 375/2/4 381/2/4
f 376/2/4 377/2/4 382/2/4
f 382/2/4 377/2/4 383/2/4
f 378/1/4 379/1/4 384/1/4
f 384/1/4 379/1/4 385/1/4
f 380/1/4 381/1/4 386/1/4
f 386/1/4 381/1/4 387/1/4
f 382/1/4 383/1/4 388/1/4
f 388/1/4 383/1/4 389/1/4
f 390/3/4 391/3/4 396/3/4
f 396/3/4 391/3/4 397/3/4
f 392/3/4 393/3/4 398/3/4
f 398/3/4 393/3/4 399/3/4
f 399/3/4 393/3/4 400/3/4
f 394/3/4 395/3/4 401/3/4
f 401/3/4 395/3/4 402/3/4
f 396/2/4 397/2/4 403/2/4
f 403/2/4 397/2/4 404/2/4
f 398/2/4 399/2/4 405/2/4
f 405/2/4 399/2/4 406/2/4
f 401/2/4 402/2/4 407/2/4
f 407/2/4 402/2/4 408/2/4
f 403/1/4 404/1/4 409/1/4
f 409/1/4 404/1/4 410/1/4
f 405/1/4 406/1/4 411/1/4
f 411/1/4 406/1/4 412/1/4
f 407/1/4 408/1/4 413/1/4
f 413/1/4 408/1/4 414/1/4
f 419/3/5 416/3/5 415/3/5
f 419/2/5 417/2/5 416/2/5
f 420/1/5 418/1/5 417/1/5
f 420/2/5 417/2/5 419/2/5
f 421/1/5 418/1/5 420/1/5
f 422/3/5 419/3/5 415/3/5
f 425/3/5 422/3/5 415/3/5
f 425/2/5 423/2/5 422/2/5
f 426/1/5 424/1/5 423/1/5
f 426/2/5 423/2/5 425/2/5
f 427/1/5 424/1/5 426/1/5
f 428/3/5 425/3/5 415/3/5
f 429/3/5 425/3/5 428/3/5
f 434/3/5 431/3/5 430/3/5
f 434/2/5 432/2/5 431/2/5
f 435/1/5 433/1/5 432/1/5
f 435/2/5 432/2/5 434/2/5
f 436/1/5 433/1/5 435/1/5
f 437/3/5 434/3/5 430/3/5
f 440/3/5 437/3/5 430/3/5
f 440/2/5 438/2/5 437/2/5
f 441/1/5 439/1/5 438/1/5
f 441/2/5 438/2/5 440/2/5
f 442/1/5 439/1/5 441/1/5
f 443/3/5 440/3/5 430/3/5
f 446/3/5 443/3/5 430/3/5
f 447/2/5 444/2/5 443/2/5
f 447/3/5 443/3/5 446/3/5
f 448/1/5 445/1/5 444/1/5
f 448/2/5 444/2/5 447/2/5
f 449/1/5 445/1/5 448/1/5
f 453/2/5 451/2/5 450/2/5
f 454/1/5 452/1/5 451/1/5
f 454/2/5 451/2/5 453/2/5
f 455/1/5 452/1/5 454/1/5
f 459/2/5 457/2/5 456/2/5
f 460/1/5 458/1/5 457/1/5
f 460/2/5 457/2/5 459/2/5
f 461/1/5 458/1/5 460/1/5
f 466/3/5 463/3/5 462/3/5
f 467/2/5 464/2/5 463/2/5
f 467/3/5 463/3/5 466/3/5
f 468/1/5 465/1/5 464/1/5
f 468/2/5 464/2/5 467/2/5
f 469/1/5 465/1/5 468/1/5
f 474/3/5 471/3/5 470/3/5
f 475/2/5 472/2/5 471/2/5
f 475/3/5 471/3/5 474/3/5
f 476/1/5 473/1/5 472/1/5
f 476/2/5 472/2/5 475/2/5
f 477/1/5 473/1/5 476/1/5
f 482/3/5 479/3/5 478/3/5
f 483/2/5 480/2/5 479/2/5
f 483/3/5 479/3/5 482/3/5
f 484/1/5 481/1/5 480/1/5
f 484/2/5 480/2/5 483/2/5
f 485/1/5 481/1/5 484/1/5
f 488/3/5 487/3/5 486/3/5
f 489/3/5 487/3/5 488/3/5
f 493/2/5 490/2/5 489/2/5
f 494/1/5 491/1/5 490/1/5
f 494/2/5 490/2/5 493/2/5
f 495/1/5 491/1/5 494/1/5
f 496/3/5 493/3/5 492/3/5
f 497/3/5 493/3/5 496/3/5
f 501/2/5 499/2/5 498/2/5
f 502/1/5 500/1/5 499/1/5
f 502/2/5 499/2/5 501/2/5
f 503/1/5 500/1/5 502/1/5
f 506/3/5 505/3/5 504/3/5
f 507/3/5 505/3/5 506/3/5
f 512/3/5 509/3/5 508/3/5
f 513/2/5 510/2/5 509/2/5
f 513/3/5 509/3/5 512/3/5
f 514/1/5 511/1/5 510/1/5
f 514/2/5 510/2/5 513/2/5
f 515/1/5 511/1/5 514/1/5
f 520/3/5 517/3/5 516/3/5
f 520/2/5 518/2/5 517/2/5
f 521/1/5 519/1/5 518/1/5
f 521/2/5 518/2/5 520/2/5
f 522/1/5 519/1/5 521/1/5
f 523/3/5 520/3/5 516/3/5
f 526/3/5 523/3/5 516/3/5
f 527/2/5 524/2/5 523/2/5
f 527/3/5 523/3/5 526/3/5
f 528/1/5 525/1/5 524/1/5
f 528/2/5 524/2/5 527/2/5
f 529/1/5 525/1/5 528/1/5
f 530/2/6 531/2/6 534/2/6
f 531/1/6 532/1/6 535/1/6
f 534/2/6 531/2/6 535/2/6
f 535/1/6 532/1/6 536/1/6
f 533/3/6 534/3/6 537/3/6
f 537/3/6 534/3/6 538/3/6
f 538/2/6 539/2/6 542/2/6
f 539/1/6 540/1/6 543/1/6
f 542/2/6 539/2/6 543/2/6
f 543/1/6 540/1/6 544/1/6
f 541/3/6 542/3/6 545/3/6
f 545/3/6 542/3/6 546/3/6
f 547/2/6 548/2/6 551/2/6
f 548/1/6 549/1/6 552/1/6
f 551/2/6 548/2/6 552/2/6
f 552/1/6 549/1/6 553/1/6
f 550/3/6 551/3/6 554/3/6
f 554/3/6 551/3/6 555/3/6
f 556/3/6 557/3/6 558/3/6
f 558/3/6 557/3/6 559/3/6
f 559/2/6 560/2/6 563/2/6
f 560/1/6 561/1/6 564/1/6
f 563/2/6 560/2/6 564/2/6
f 564/1/6 561/1/6 565/1/6
f 562/3/6 563/3/6 566/3/6
f 562/3/6 566/3/6 569/3/6
f 566/2/6 567/2/6 570/2/6
f 569/3/6 566/3/6 570/3/6
f 567/1/6 568/1/6 571/1/6
f 570/2/6 567/2/6 571/2/6
f 571/1/6 568/1/6 572/1/6
f 573/3/6 574/3/6 577/3/6
f 574/2/6 575/2/6 578/2/6
f 577/3/6 574/3/6 578/3/6
f 575/1/6 576/1/6 579/1/6
f 578/2/6 575/2/6 579/2/6
f 579/1/6 576/1/6 580/1/6
f 581/3/6 582/3/6 583/3/6
f 583/3/6 582/3/6 584/3/6
f 585/3/6 586/3/6 589/3/6
f 586/2/6 587/2/6 590/2/6
f 589/3/6 586/3/6 590/3/6
f 587/1/6 588/1/6 591/1/6
f 590/2/6 587/2/6 591/2/6
f 591/1/6 588/1/6 592/1/6
f 593/3/6 594/3/6 595/3/6
f 595/3/6 594/3/6 596/3/6
f 597/2/6 598/2/6 600/2/6
f 598/1/6 599/1/6 601/1/6
f 600/2/6 598/2/6 601/2/6
f 601/1/6 599/1/6 602/1/6
f 603/2/6 604/2/6 606/2/6
f 604/1/6 605/1/6 607/1/6
f 606/2/6 604/2/6 607/2/6
f 607/1/6 605/1/6 608/1/6
f 609/3/6 610/3/6 613/3/6
f 610/2/6 611/2/6 614/2/6
f 613/3/6 610/3/6 614/3/6
f 611/1/6 612/1/6 615/1/6
f 614/2/6 611/2/6 615/2/6
f 615/1/6 612/1/6 616/1/6
f 617/3/6 618/3/6 619/3/6
f 617/3/6 619/3/6 622/3/6
f 619/2/6 620/2/6 622/2/6
f 620/1/6 621/1/6 623/1/6
f 622/2/6 620/2/6 623/2/6
f 623/1/6 621/1/6 624/1/6
f 617/3/6 622/3/6 625/3/6
f 625/3/6 622/3/6 626/3/6
f 627/3/6 628/3/6 631/3/6
f 628/2/6 629/2/6 632/2/6
f 631/3/6 628/3/6 632/3/6
f 629/1/6 630/1/6 633/1/6
f 632/2/6 629/2/6 633/2/6
f 633/1/6 630/1/6 634/1/6
f 635/3/6 636/3/6 637/3/6
f 637/3/6 636/3/6 638/3/6
f 639/3/6 640/3/6 641/3/6
f 641/3/6 640/3/6 642/3/6
f 643/3/6 644/3/6 647/3/6
f 644/2/6 645/2/6 648/2/6
f 647/3/6 644/3/6 648/3/6
f 645/1/6 646/1/6 649/1/6
f 648/2/6 645/2/6 649/2/6
f 649/1/6 646/1/6 650/1/6
f 651/3/6 652/3/6 655/3/6
f 652/2/6 653/2/6 655/2/6
f 653/1/6 654/1/6 656/1/6
f 655/2/6 653/2/6 656/2/6
f 656/1/6 654/1/6 657/1/6
f 651/3/6 655/3/6 658/3/6
f 651/3/6 658/3/6 661/3/6
f 658/2/6 659/2/6 662/2/6
f 661/3/6 658/3/6 662/3/6
f 659/1/6 660/1/6 663/1/6
f 662/2/6 659/2/6 663/2/6
f 663/1/6 660/1/6 664/1/6
